0
SECTION
2
HEADER
9
$INSUNITS
70
4
9
$ACADVER
1
AC1014
9
$HANDSEED
5
FFFF
0
ENDSEC
0
SECTION
2
TABLES
0
TABLE
2
VPORT
5
8
100
AcDbSymbolTable
0
ENDTAB
0
TABLE
2
LTYPE
5
5
100
AcDbSymbolTable
0
LTYPE
5
14
100
AcDbSymbolTableRecord
100
AcDbLinetypeTableRecord
2
BYBLOCK
70
0
0
LTYPE
5
15
100
AcDbSymbolTableRecord
100
AcDbLinetypeTableRecord
2
BYLAYER
70
0
0
ENDTAB
0
TABLE
2
LAYER
5
2
100
AcDbSymbolTable
70
2
0
LAYER
5
50
100
AcDbSymbolTableRecord
100
AcDbLayerTableRecord
2
0
70
0
6
CONTINUOUS
0
ENDTAB
0
TABLE
2
STYLE
5
3
100
AcDbSymbolTable
70
1
0
STYLE
5
11
100
AcDbSymbolTableRecord
100
AcDbTextStyleTableRecord
2
STANDARD
70
0
0
ENDTAB
0
TABLE
2
VIEW
5
6
100
AcDbSymbolTable
70
0
0
ENDTAB
0
TABLE
2
UCS
5
7
100
AcDbSymbolTable
70
0
0
ENDTAB
0
TABLE
2
APPID
5
9
100
AcDbSymbolTable
70
2
0
APPID
5
12
100
AcDbSymbolTableRecord
100
AcDbRegAppTableRecord
2
ACAD
70
0
0
ENDTAB
0
TABLE
2
DIMSTYLE
5
A
100
AcDbSymbolTable
70
1
0
ENDTAB
0
TABLE
2
BLOCK_RECORD
5
1
100
AcDbSymbolTable
70
1
0
BLOCK_RECORD
5
1F
100
AcDbSymbolTableRecord
100
AcDbBlockTableRecord
2
*MODEL_SPACE
0
BLOCK_RECORD
5
1B
100
AcDbSymbolTableRecord
100
AcDbBlockTableRecord
2
*PAPER_SPACE
0
ENDTAB
0
ENDSEC
0
SECTION
2
BLOCKS
0
BLOCK
5
20
100
AcDbEntity
100
AcDbBlockBegin
2
*MODEL_SPACE
0
ENDBLK
5
21
100
AcDbEntity
100
AcDbBlockEnd
0
BLOCK
5
1C
100
AcDbEntity
100
AcDbBlockBegin
2
*PAPER_SPACE
0
ENDBLK
5
1D
100
AcDbEntity
100
AcDbBlockEnd
0
ENDSEC
0
SECTION
2
ENTITIES
0
LWPOLYLINE
5
100
100
AcDbEntity
8
0
100
AcDbPolyline
90
4
70
1
43
0.0
10
3.6739403974420604e-16
20
-52.100000000000009
10
114.3
20
-52.100000000000009
10
114.3
20
5.0499999999999901
10
1.8369701987210302e-16
20
5.0499999999999901
0
LWPOLYLINE
5
101
100
AcDbEntity
8
0
100
AcDbPolyline
90
4
70
1
43
0.0
10
2.5249999999999955
20
-11.475000000000009
10
2.5249999999999955
20
2.524999999999995
10
16.524999999999999
20
2.5249999999999861
10
16.524999999999999
20
-11.475000000000009
0
LWPOLYLINE
5
102
100
AcDbEntity
8
0
100
AcDbPolyline
90
4
70
1
43
0.0
10
35.57500000000001
20
2.5249999999999861
10
35.57500000000001
20
-11.475000000000009
10
21.57500000000001
20
-11.475000000000009
10
21.57500000000001
20
2.524999999999995
0
LWPOLYLINE
5
103
100
AcDbEntity
8
0
100
AcDbPolyline
90
4
70
1
43
0.0
10
40.625
20
2.524999999999995
10
54.625
20
2.5249999999999861
10
54.625
20
-11.475000000000009
10
40.625
20
-11.475000000000009
0
LWPOLYLINE
5
104
100
AcDbEntity
8
0
100
AcDbPolyline
90
4
70
1
43
0.0
10
59.675000000000004
20
-11.475000000000009
10
59.675000000000004
20
2.524999999999995
10
73.674999999999983
20
2.5249999999999861
10
73.674999999999983
20
-11.475000000000009
0
LWPOLYLINE
5
105
100
AcDbEntity
8
0
100
AcDbPolyline
90
4
70
1
43
0.0
10
92.724999999999994
20
2.5249999999999861
10
92.724999999999994
20
-11.475000000000009
10
78.724999999999994
20
-11.475000000000009
10
78.724999999999994
20
2.524999999999995
0
LWPOLYLINE
5
106
100
AcDbEntity
8
0
100
AcDbPolyline
90
4
70
1
43
0.0
10
97.775000000000034
20
-11.475000000000009
10
97.775000000000034
20
2.524999999999995
10
111.77500000000002
20
2.5249999999999861
10
111.77500000000002
20
-11.475000000000009
0
LWPOLYLINE
5
107
100
AcDbEntity
8
0
100
AcDbPolyline
90
4
70
1
43
0.0
10
18.90625
20
-30.52500000000002
10
2.524999999999995
20
-30.52500000000002
10
2.5249999999999955
20
-16.52500000000002
10
18.90625
20
-16.52500000000002
0
LWPOLYLINE
5
108
100
AcDbEntity
8
0
100
AcDbPolyline
90
8
70
1
43
0.0
10
6.0249999999999924
20
-35.57500000000001
10
6.0249999999999924
20
-33.57500000000001
10
13.025000000000002
20
-33.57500000000001
10
13.025000000000002
20
-35.57500000000001
10
16.524999999999999
20
-35.57500000000001
10
16.524999999999999
20
-49.575000000000017
10
2.524999999999995
20
-49.575000000000017
10
2.5249999999999955
20
-35.57500000000001
0
LWPOLYLINE
5
109
100
AcDbEntity
8
0
100
AcDbPolyline
90
8
70
1
43
0.0
10
108.27500000000001
20
-35.57500000000001
10
111.77500000000002
20
-35.57500000000001
10
111.77500000000002
20
-49.575000000000017
10
97.775000000000034
20
-49.575000000000017
10
97.775000000000034
20
-35.57500000000001
10
101.27500000000001
20
-35.57500000000001
10
101.27500000000001
20
-33.57500000000001
10
108.27500000000001
20
-33.57500000000001
0
LWPOLYLINE
5
110
100
AcDbEntity
8
0
100
AcDbPolyline
90
20
70
1
43
0.0
10
92.724999999999994
20
-35.57500000000001
10
92.724999999999994
20
-49.575000000000017
10
21.575000000000006
20
-49.575000000000017
10
21.57500000000001
20
-35.57500000000001
10
22.661999999999995
20
-35.57500000000001
10
22.661999999999995
20
-33.57500000000001
10
29.66200000000001
20
-33.57500000000001
10
29.66200000000001
20
-35.57500000000001
10
41.712000000000003
20
-35.57500000000001
10
41.712000000000003
20
-33.57500000000001
10
53.537999999999997
20
-33.57500000000001
10
53.537999999999997
20
-35.57500000000001
10
60.762
20
-35.57500000000001
10
60.762
20
-33.57500000000001
10
72.58799999999998
20
-33.57500000000001
10
72.58799999999998
20
-35.57500000000001
10
84.637999999999977
20
-35.57500000000001
10
84.637999999999977
20
-33.57500000000001
10
91.638000000000005
20
-33.57500000000001
10
91.638000000000005
20
-35.57500000000001
0
LWPOLYLINE
5
111
100
AcDbEntity
8
0
100
AcDbPolyline
90
4
70
1
43
0.0
10
21.575000000000006
20
-30.52500000000002
10
21.57500000000001
20
-16.52500000000002
10
111.77500000000002
20
-16.52500000000002
10
111.77500000000002
20
-30.52500000000002
0
CIRCLE
5
112
100
AcDbEntity
8
0
100
AcDbCircle
10
-95.249999999999986
20
-9.2375000000000096
30
-2.7755575615628914e-16
40
1.9999999999999929
210
0
220
0
230
-1
0
CIRCLE
5
113
100
AcDbEntity
8
0
100
AcDbCircle
10
-95.249999999999986
20
-47.337500000000013
30
-2.7755575615628914e-16
40
1.9999999999999929
210
0
220
0
230
-1
0
CIRCLE
5
114
100
AcDbEntity
8
0
100
AcDbCircle
10
-19.050000000000008
20
-9.2375000000000096
30
-2.7755575615628914e-16
40
1.9999999999999996
210
0
220
0
230
-1
0
CIRCLE
5
115
100
AcDbEntity
8
0
100
AcDbCircle
10
-19.050000000000008
20
-47.337500000000013
30
-2.7755575615628914e-16
40
1.9999999999999996
210
0
220
0
230
-1
0
ENDSEC
0
SECTION
2
OBJECTS
0
DICTIONARY
5
C
100
AcDbDictionary
3
ACAD_GROUP
350
D
3
ACAD_MLINESTYLE
350
17
0
DICTIONARY
5
D
100
AcDbDictionary
0
DICTIONARY
5
1A
330
C
100
AcDbDictionary
0
DICTIONARY
5
17
100
AcDbDictionary
0
ENDSEC
0
EOF
