0
SECTION
2
HEADER
9
$INSUNITS
70
4
9
$ACADVER
1
AC1014
9
$HANDSEED
5
FFFF
0
ENDSEC
0
SECTION
2
TABLES
0
TABLE
2
VPORT
5
8
100
AcDbSymbolTable
0
ENDTAB
0
TABLE
2
LTYPE
5
5
100
AcDbSymbolTable
0
LTYPE
5
14
100
AcDbSymbolTableRecord
100
AcDbLinetypeTableRecord
2
BYBLOCK
70
0
0
LTYPE
5
15
100
AcDbSymbolTableRecord
100
AcDbLinetypeTableRecord
2
BYLAYER
70
0
0
ENDTAB
0
TABLE
2
LAYER
5
2
100
AcDbSymbolTable
70
2
0
LAYER
5
50
100
AcDbSymbolTableRecord
100
AcDbLayerTableRecord
2
0
70
0
6
CONTINUOUS
0
ENDTAB
0
TABLE
2
STYLE
5
3
100
AcDbSymbolTable
70
1
0
STYLE
5
11
100
AcDbSymbolTableRecord
100
AcDbTextStyleTableRecord
2
STANDARD
70
0
0
ENDTAB
0
TABLE
2
VIEW
5
6
100
AcDbSymbolTable
70
0
0
ENDTAB
0
TABLE
2
UCS
5
7
100
AcDbSymbolTable
70
0
0
ENDTAB
0
TABLE
2
APPID
5
9
100
AcDbSymbolTable
70
2
0
APPID
5
12
100
AcDbSymbolTableRecord
100
AcDbRegAppTableRecord
2
ACAD
70
0
0
ENDTAB
0
TABLE
2
DIMSTYLE
5
A
100
AcDbSymbolTable
70
1
0
ENDTAB
0
TABLE
2
BLOCK_RECORD
5
1
100
AcDbSymbolTable
70
1
0
BLOCK_RECORD
5
1F
100
AcDbSymbolTableRecord
100
AcDbBlockTableRecord
2
*MODEL_SPACE
0
BLOCK_RECORD
5
1B
100
AcDbSymbolTableRecord
100
AcDbBlockTableRecord
2
*PAPER_SPACE
0
ENDTAB
0
ENDSEC
0
SECTION
2
BLOCKS
0
BLOCK
5
20
100
AcDbEntity
100
AcDbBlockBegin
2
*MODEL_SPACE
0
ENDBLK
5
21
100
AcDbEntity
100
AcDbBlockEnd
0
BLOCK
5
1C
100
AcDbEntity
100
AcDbBlockBegin
2
*PAPER_SPACE
0
ENDBLK
5
1D
100
AcDbEntity
100
AcDbBlockEnd
0
ENDSEC
0
SECTION
2
ENTITIES
0
LWPOLYLINE
5
100
100
AcDbEntity
8
0
100
AcDbPolyline
90
4
70
1
43
0.0
10
-6.9988564571271218e-15
20
-57.149999999999999
10
114.3
20
-57.15000000000002
10
114.3
20
-1.7763568394002505e-14
10
0
20
0
0
LWPOLYLINE
5
101
100
AcDbEntity
8
0
100
AcDbPolyline
90
4
70
1
43
0.0
10
40.625
20
-2.5249999999999999
10
54.625
20
-2.5250000000000106
10
54.625
20
-16.525000000000006
10
40.625
20
-16.525000000000002
0
LWPOLYLINE
5
102
100
AcDbEntity
8
0
100
AcDbPolyline
90
4
70
1
43
0.0
10
59.675000000000004
20
-16.525000000000006
10
59.675000000000004
20
-2.5250000000000017
10
73.674999999999983
20
-2.5250000000000128
10
73.674999999999983
20
-16.525000000000006
0
LWPOLYLINE
5
103
100
AcDbEntity
8
0
100
AcDbPolyline
90
4
70
1
43
0.0
10
18.906249999999996
20
-35.575000000000017
10
2.5249999999999906
20
-35.57500000000001
10
2.5249999999999924
20
-21.57500000000001
10
18.906249999999996
20
-21.575000000000017
0
LWPOLYLINE
5
104
100
AcDbEntity
8
0
100
AcDbPolyline
90
4
70
1
43
0.0
10
21.575000000000003
20
-35.575000000000017
10
21.575000000000006
20
-21.575000000000017
10
111.77500000000002
20
-21.575000000000024
10
111.77500000000002
20
-35.575000000000024
0
LWPOLYLINE
5
105
100
AcDbEntity
8
0
100
AcDbPolyline
90
12
70
1
43
0.0
10
16.524999999999995
20
-16.525000000000002
10
2.5249999999999928
20
-16.524999999999999
10
2.5249999999999946
20
-2.524999999999995
10
16.524999999999999
20
-2.5250000000000061
10
16.524999999999999
20
-3.6730620715249729
42
-0.65764834515840143
10
21.57500000000001
20
-3.6730620715249538
10
21.57500000000001
20
-2.5249999999999977
10
35.57500000000001
20
-2.5250000000000083
10
35.57500000000001
20
-16.525000000000002
10
21.57500000000001
20
-16.525000000000002
10
21.57500000000001
20
-5.8519379284750386
42
-0.65764834515840143
10
16.524999999999999
20
-5.8519379284750181
0
LWPOLYLINE
5
106
100
AcDbEntity
8
0
100
AcDbPolyline
90
12
70
1
43
0.0
10
97.775000000000034
20
-2.5250000000000075
10
111.77500000000002
20
-2.5250000000000177
10
111.77500000000002
20
-16.525000000000013
10
97.775000000000034
20
-16.525000000000009
10
97.775000000000034
20
-5.8519379284749409
42
-0.65764834515841153
10
92.724999999999994
20
-5.8519379284750634
10
92.724999999999994
20
-16.525000000000006
10
78.724999999999994
20
-16.525000000000006
10
78.724999999999994
20
-2.5250000000000039
10
92.724999999999994
20
-2.525000000000015
10
92.724999999999966
20
-3.6730620715249476
42
-0.65764834515841153
10
97.775000000000034
20
-3.6730620715250692
0
LWPOLYLINE
5
107
100
AcDbEntity
8
0
100
AcDbPolyline
90
44
70
1
43
0.0
10
92.724999999999994
20
-54.625000000000014
10
21.575000000000006
20
-54.625
10
21.575000000000006
20
-43.95193792847504
42
-0.65764834515840154
10
16.524999999999995
20
-43.951937928475019
10
16.524999999999991
20
-54.625
10
2.5249999999999884
20
-54.625
10
2.5249999999999901
20
-40.625
10
6.0249999999999879
20
-40.625
10
6.0249999999999879
20
-38.625
10
13.024999999999999
20
-38.625
10
13.024999999999999
20
-40.625
10
16.524999999999995
20
-40.625
10
16.524999999999995
20
-41.773062071524976
42
-0.65764834515840154
10
21.575000000000006
20
-41.773062071524961
10
21.575000000000006
20
-40.625
10
22.661999999999992
20
-40.625
10
22.661999999999992
20
-38.625000000000007
10
29.662000000000006
20
-38.625000000000007
10
29.662000000000006
20
-40.625
10
41.711999999999996
20
-40.625000000000007
10
41.711999999999996
20
-38.625000000000007
10
53.53799999999999
20
-38.625000000000007
10
53.53799999999999
20
-40.625000000000007
10
60.761999999999993
20
-40.625000000000007
10
60.761999999999993
20
-38.625000000000014
10
72.587999999999965
20
-38.625000000000014
10
72.587999999999965
20
-40.625000000000007
10
84.637999999999977
20
-40.625000000000007
10
84.637999999999977
20
-38.625000000000014
10
91.638000000000005
20
-38.625000000000014
10
91.638000000000005
20
-40.625000000000007
10
92.724999999999994
20
-40.625000000000007
10
92.724999999999994
20
-41.77306207152494
42
-0.65764834515841075
10
97.775000000000034
20
-41.773062071525075
10
97.775000000000034
20
-40.625000000000007
10
101.27500000000001
20
-40.625000000000007
10
101.27500000000001
20
-38.625000000000014
10
108.27500000000001
20
-38.625000000000014
10
108.27500000000001
20
-40.625000000000007
10
111.77500000000002
20
-40.625000000000014
10
111.77500000000002
20
-54.625000000000021
10
97.775000000000034
20
-54.625000000000014
10
97.775000000000034
20
-43.951937928474941
42
-0.65764834515841153
10
92.724999999999994
20
-43.951937928475068
0
ENDSEC
0
SECTION
2
OBJECTS
0
DICTIONARY
5
C
100
AcDbDictionary
3
ACAD_GROUP
350
D
3
ACAD_MLINESTYLE
350
17
0
DICTIONARY
5
D
100
AcDbDictionary
0
DICTIONARY
5
1A
330
C
100
AcDbDictionary
0
DICTIONARY
5
17
100
AcDbDictionary
0
ENDSEC
0
EOF
